<?xml version="1.0" encoding="UTF-8"?>
<svg id="Layer_1" data-name="Layer 1" xmlns="http://www.w3.org/2000/svg" viewBox="0 0 584.28 584.28">
  <defs>
    <style>
      .cls-1 {
        fill: #e8c36a;
      }

      .cls-1, .cls-2, .cls-3, .cls-4 {
        stroke-width: 0px;
      }

      .cls-2 {
        fill: #299d8f;
      }

      .cls-3 {
        fill: #fff;
      }

      .cls-4 {
        fill: #25363b;
      }
    </style>
  </defs>
  <g>
    <path class="cls-4" d="m295.75,190.42c-56.23,0-101.84,45.6-101.84,101.84s45.6,101.85,101.84,101.85,101.84-45.6,101.84-101.85-45.59-101.84-101.84-101.84Z"/>
    <path class="cls-3" d="m338.82,276.07h-38.7v-45.27c0-3.2-4.15-4.45-5.91-1.79l-47.66,71.46c-2.32,3.38.11,7.98,4.21,7.98h38.7v45.27c0,3.2,4.15,4.45,5.92,1.79l47.66-71.46c2.32-3.39-.11-7.98-4.21-7.98Z"/>
    <path class="cls-2" d="m339.38,270.57h-32.87v-39.76l-.08-.7c-.82-5.39-8.1-7.26-11.32-2.43l-.9,1.35c1.77-2.66,5.92-1.41,5.92,1.79v45.27h38.69c4.11,0,6.53,4.6,4.21,7.98l-44.64,66.94h0l-2.42,3.64-.59.89-.9,1.35c-1.28,1.92-3.21,2.79-5.11,2.79h4.31c3.02,0,5.85-1.37,7.74-3.69l.56-.75,10.96-16.44h.01s30.15-45.23,30.15-45.23l4.73-6.72c4.81-6.83-.08-16.25-8.43-16.25Z"/>
    <path class="cls-1" d="m250.19,313.96h32.87v39.76l.08.7c.82,5.39,8.1,7.26,11.32,2.43l.9-1.35c-1.77,2.66-5.92,1.41-5.92-1.79v-45.27h-38.69c-4.11,0-6.53-4.6-4.21-7.98l44.64-66.94h0l2.42-3.64.59-.89.9-1.35c1.28-1.92,3.21-2.79,5.11-2.79h-4.31c-3.02,0-5.85,1.37-7.74,3.69l-.56.75-10.96,16.44h-.01s-30.15,45.23-30.15,45.23l-4.73,6.72c-4.81,6.83.08,16.25,8.44,16.25Z"/>
    <g>
      <polygon class="cls-4" points="403.64 452.3 403.65 452.3 403.64 452.3 403.64 452.3"/>
      <path class="cls-2" d="m105.31,156.76h73.43v-15.42h-73.43c-4.26,0-7.71,3.45-7.71,7.71h0c0,4.26,3.45,7.71,7.71,7.71Z"/>
      <path class="cls-2" d="m144.64,178.8h-64.17c-4.26,0-7.71,3.45-7.71,7.71h0c0,4.26,3.45,7.71,7.71,7.71h64.17v-15.42Z"/>
      <path class="cls-2" d="m122.48,217.25H54.98c-4.26,0-7.71,3.45-7.71,7.71h0c0,4.26,3.45,7.71,7.71,7.71h67.49v-15.42Z"/>
    </g>
    <path class="cls-2" d="m444.14,292.38c0,81.97-66.49,148.45-148.51,148.45s-148.45-66.49-148.51-148.45c0-6.11.37-12.09,1.17-17.95.55-5.24,1.48-10.42,2.65-15.42h15.91c-2.84,10.67-4.26,21.83-4.32,33.37.06,36.76,14.92,70,39.04,94.05,24.05,24.11,57.3,38.98,94.05,38.98s70-14.86,94.12-38.98c24.12-24.05,38.98-57.3,38.98-94.05s-14.86-70-38.98-94.12c-24.11-24.11-57.3-38.98-94.12-38.98s-70,14.86-94.05,38.98c-10.05,10.05-18.5,21.65-24.86,34.41h-17.02c22.94-52.3,75.12-88.81,135.93-88.81,82.03,0,148.51,66.49,148.51,148.51Z"/>
  </g>
  <path class="cls-1" d="m295.65,99.38h-166.57c-4.26,0-7.71,3.45-7.71,7.71s3.45,7.71,7.71,7.71h166.57c49.05,0,93.39,19.86,125.55,52,32.14,32.16,52,76.5,52.01,125.55,0,60.42-30.19,113.7-76.29,145.8l1.27,1.64-1.38-1.78c-28.7,19.97-63.53,31.71-101.16,31.71-49,0-93.3-19.84-125.42-51.95-32.11-32.12-51.94-76.41-51.95-125.42,0-1.36.02-7.09.05-12.78.02-2.85.03-5.7.06-7.99.02-2.26.05-4.11.07-4.51l-15.4-.68c-.04.97-.06,2.68-.09,5.04-.07,7-.1,18.78-.1,20.92,0,106.48,86.31,192.78,192.78,192.78,41.17,0,79.29-12.95,110.61-34.93l.1.13c49.71-34.88,82.26-92.64,82.26-157.99,0-106.58-86.39-192.97-192.97-192.97Z"/>
  <path class="cls-2" d="m28.95,274.43h129.52v-15.42H28.95c-4.26,0-7.71,3.45-7.71,7.71h0c0,4.26,3.45,7.71,7.71,7.71Z"/>
</svg>