<?xml version="1.0" encoding="UTF-8"?>
<svg id="Layer_1" data-name="Layer 1" xmlns="http://www.w3.org/2000/svg" viewBox="0 0 1427.88 508.5">
  <defs>
    <style>
      .cls-1 {
        fill: #e8c36a;
      }

      .cls-1, .cls-2, .cls-3, .cls-4 {
        stroke-width: 0px;
      }

      .cls-2 {
        fill: #299d8f;
      }

      .cls-3 {
        fill: #fff;
      }

      .cls-4 {
        fill: #25363b;
      }
    </style>
  </defs>
  <g>
    <g>
      <path class="cls-1" d="m334.73,159.98c-52.05,0-94.27,42.21-94.27,94.27s42.21,94.28,94.27,94.28,94.27-42.21,94.27-94.28-42.2-94.27-94.27-94.27Z"/>
      <path class="cls-3" d="m374.6,239.26h-35.82v-41.9c0-2.96-3.84-4.12-5.47-1.65l-44.12,66.15c-2.14,3.13.1,7.39,3.9,7.39h35.82v41.9c0,2.96,3.84,4.12,5.48,1.65l44.12-66.15c2.14-3.13-.1-7.39-3.9-7.39Z"/>
      <path class="cls-2" d="m375.13,234.17h-30.43v-36.81l-.08-.65c-.76-4.99-7.5-6.72-10.48-2.25l-.83,1.25c1.64-2.46,5.48-1.3,5.48,1.66v41.9h35.82c3.8,0,6.04,4.26,3.9,7.39l-41.32,61.96h0l-2.24,3.37-.55.82-.83,1.25c-1.19,1.78-2.97,2.58-4.73,2.58h3.99c2.79,0,5.42-1.27,7.16-3.41l.51-.7,10.15-15.22h.01s27.91-41.87,27.91-41.87l4.38-6.22c4.45-6.33-.07-15.04-7.81-15.04Z"/>
      <path class="cls-4" d="m292.56,274.34h30.43v36.81l.08.65c.76,4.99,7.5,6.72,10.48,2.25l.83-1.25c-1.64,2.46-5.48,1.3-5.48-1.66v-41.9h-35.82c-3.8,0-6.04-4.26-3.9-7.39l41.32-61.96h0l2.24-3.37.55-.82.83-1.25c1.19-1.78,2.97-2.58,4.73-2.58h-3.99c-2.79,0-5.42,1.27-7.16,3.41l-.51.7-10.15,15.22h-.01s-27.91,41.87-27.91,41.87l-4.38,6.22c-4.45,6.33.07,15.04,7.81,15.04Z"/>
      <g>
        <polygon class="cls-4" points="434.61 402.4 434.61 402.4 434.61 402.4 434.61 402.4"/>
        <path class="cls-2" d="m158.45,128.82h67.97v-14.27h-67.97c-3.94,0-7.14,3.2-7.14,7.14h0c0,3.94,3.2,7.14,7.14,7.14Z"/>
        <path class="cls-2" d="m194.86,149.22h-59.4c-3.94,0-7.14,3.2-7.14,7.14h0c0,3.94,3.2,7.14,7.14,7.14h59.4v-14.27Z"/>
        <path class="cls-2" d="m174.34,184.82h-62.48c-3.94,0-7.14,3.2-7.14,7.14h0c0,3.94,3.2,7.14,7.14,7.14h62.48v-14.27Z"/>
      </g>
      <path class="cls-2" d="m472.1,254.36c0,75.87-61.54,137.42-137.47,137.42s-137.42-61.54-137.47-137.42c0-5.65.34-11.19,1.08-16.61.51-4.85,1.37-9.65,2.45-14.27h14.73c-2.63,9.88-3.94,20.21-4,30.89.06,34.03,13.82,64.8,36.14,87.06,22.27,22.32,53.04,36.08,87.06,36.08s64.8-13.76,87.12-36.08c22.32-22.27,36.08-53.04,36.08-87.06s-13.76-64.8-36.08-87.12c-22.32-22.32-53.04-36.08-87.12-36.08s-64.8,13.76-87.06,36.08c-9.31,9.31-17.13,20.04-23.01,31.86h-15.76c21.24-48.41,69.54-82.21,125.83-82.21,75.93,0,137.47,61.54,137.47,137.47Z"/>
    </g>
    <path class="cls-1" d="m334.64,75.71h-154.19c-3.94,0-7.14,3.19-7.14,7.14s3.19,7.14,7.14,7.14h154.19c45.41,0,86.45,18.39,116.22,48.14,29.76,29.77,48.14,70.81,48.14,116.22,0,55.93-27.94,105.25-70.62,134.96l1.18,1.52-1.28-1.65c-26.56,18.49-58.8,29.35-93.64,29.35-45.36,0-86.36-18.37-116.1-48.09-29.72-29.73-48.08-70.74-48.09-116.1,0-1.26.02-6.56.04-11.83.01-2.64.03-5.27.05-7.4.02-2.1.05-3.8.07-4.18l-14.26-.63c-.04.9-.06,2.48-.08,4.67-.06,6.48-.1,17.39-.1,19.37,0,98.56,79.89,178.45,178.46,178.46,38.11,0,73.4-11.99,102.39-32.33l.09.12c46.02-32.29,76.15-85.75,76.15-146.25,0-98.66-79.97-178.63-178.63-178.63Z"/>
    <path class="cls-2" d="m87.76,237.75h119.89v-14.27h-119.89c-3.94,0-7.14,3.2-7.14,7.14h0c0,3.94,3.2,7.14,7.14,7.14Z"/>
  </g>
  <g>
    <g>
      <path class="cls-3" d="m559.49,264.17v-120.13h96.9c4.23,0,8.13,1.06,11.7,3.17,3.56,2.12,6.4,4.93,8.52,8.44,2.11,3.51,3.17,7.38,3.17,11.61v32.41c0,4.23-1.06,8.13-3.17,11.7-2.11,3.57-4.96,6.38-8.52,8.44-3.57,2.06-7.47,3.09-11.7,3.09l-74.85.17v41.1h-22.05Zm24.06-63.49h71.84c.56,0,1.06-.17,1.51-.5.45-.33.67-.78.67-1.34v-30.74c0-.56-.23-1.03-.67-1.42-.45-.39-.95-.58-1.51-.58h-71.84c-.56,0-1.03.19-1.42.58-.39.39-.59.86-.59,1.42v30.74c0,.56.2,1,.59,1.34.39.34.86.5,1.42.5Zm71.84,63.49l-36.25-43.27h28.91l31.41,37.09v6.18h-24.06Z"/>
      <path class="cls-3" d="m725.23,264.17c-4.23,0-8.1-1.06-11.61-3.17-3.51-2.11-6.33-4.93-8.44-8.44-2.11-3.51-3.17-7.38-3.17-11.61v-73.85c0-4.23,1.06-8.1,3.17-11.61,2.11-3.51,4.93-6.32,8.44-8.44,3.51-2.11,7.37-3.17,11.61-3.17h73.85c4.23,0,8.1,1.06,11.61,3.17,3.51,2.12,6.32,4.93,8.44,8.44,2.11,3.51,3.17,7.38,3.17,11.61v73.85c0,4.23-1.06,8.1-3.17,11.61-2.12,3.51-4.93,6.32-8.44,8.44-3.51,2.12-7.38,3.17-11.61,3.17h-73.85Zm.84-22.22h71.84c.56,0,1.06-.19,1.51-.58.45-.39.66-.86.66-1.42v-71.84c0-.56-.22-1.03-.66-1.42-.45-.39-.95-.58-1.51-.58h-71.84c-.56,0-1.03.19-1.42.58-.4.39-.59.86-.59,1.42v71.84c0,.56.19,1.03.59,1.42.39.39.86.58,1.42.58Z"/>
      <path class="cls-3" d="m880.44,264.17l-43.77-120.3h23.39l29.07,79.36,29.08-79.36h21.55l29.08,79.36,28.9-79.36h23.56l-43.77,120.3h-17.38l-31.25-85.21-31.08,85.21h-17.38Z"/>
      <path class="cls-3" d="m1039.83,264.17v-120.3h21.89v120.3h-21.89Z"/>
      <path class="cls-3" d="m1082.94,264.17v-120.3h24.22l73.85,87.88v-87.88h22.22v120.3h-24.23l-74.02-88.05v88.05h-22.05Z"/>
      <path class="cls-3" d="m1250.18,264.17c-4.23,0-8.11-1.06-11.61-3.17-3.51-2.11-6.32-4.93-8.43-8.44-2.12-3.51-3.17-7.38-3.17-11.61v-73.85c0-4.23,1.05-8.1,3.17-11.61,2.11-3.51,4.93-6.32,8.43-8.44,3.51-2.11,7.38-3.17,11.61-3.17h73.68c4.23,0,8.13,1.06,11.7,3.17,3.56,2.12,6.4,4.93,8.52,8.44,2.11,3.51,3.17,7.38,3.17,11.61v9.36h-22.22v-8.35c0-.56-.23-1.03-.67-1.42-.45-.39-.95-.58-1.51-.58h-71.84c-.56,0-1.03.19-1.42.58-.39.39-.59.86-.59,1.42v71.84c0,.56.2,1.03.59,1.42.39.39.86.58,1.42.58h71.84c.56,0,1.06-.19,1.51-.58.45-.39.67-.86.67-1.42v-21.72h-27.24v-22.22h49.46v44.94c0,4.23-1.06,8.1-3.17,11.61-2.11,3.51-4.96,6.32-8.52,8.44-3.57,2.12-7.47,3.17-11.7,3.17h-73.68Z"/>
    </g>
    <g>
      <path class="cls-3" d="m585.28,364.85l-25.79-70.88h13.78l17.13,46.76,17.13-46.76h12.7l17.13,46.76,17.03-46.76h13.88l-25.8,70.88h-10.24l-18.41-50.21-18.32,50.21h-10.24Z"/>
      <path class="cls-3" d="m681.16,364.85v-70.88h12.9v70.88h-12.9Z"/>
      <path class="cls-3" d="m735.31,364.85v-57.79h-28.94v-13.09h70.88v13.09h-28.84v57.79h-13.1Z"/>
      <path class="cls-3" d="m789.65,364.85v-70.88h12.99v28.84h46.47v-28.84h12.99v70.88h-12.99v-28.84h-46.47v28.84h-12.99Z"/>
      <path class="cls-3" d="m937.02,364.85l-25.79-70.88h13.78l17.13,46.76,17.13-46.76h12.7l17.13,46.76,17.03-46.76h13.88l-25.8,70.88h-10.24l-18.41-50.21-18.32,50.21h-10.24Z"/>
      <path class="cls-3" d="m1030.35,307.65c0-2.5.62-4.78,1.87-6.84,1.24-2.07,2.9-3.73,4.97-4.97,2.07-1.24,4.35-1.87,6.84-1.87h43.41c2.5,0,4.79.63,6.89,1.87,2.1,1.25,3.77,2.91,5.02,4.97,1.25,2.07,1.87,4.35,1.87,6.84v57.2h-13.09v-23.83h-44.8v23.83h-12.99v-57.2Zm57.79,20.38v-19.79c0-.33-.13-.61-.39-.84-.26-.23-.56-.34-.88-.34h-42.34c-.33,0-.61.11-.84.34-.23.23-.35.51-.35.84v19.79h44.8Z"/>
      <path class="cls-3" d="m1142.78,364.85v-57.79h-28.94v-13.09h70.88v13.09h-28.84v57.79h-13.1Z"/>
      <path class="cls-3" d="m1222.42,364.85v-57.79h-28.94v-13.09h70.88v13.09h-28.84v57.79h-13.1Z"/>
      <path class="cls-3" d="m1290.06,364.85c-2.5,0-4.78-.62-6.84-1.87-2.07-1.25-3.73-2.91-4.98-4.97-1.24-2.07-1.87-4.35-1.87-6.84v-5.41h12.99v4.82c0,.33.11.6.35.84.23.23.5.34.84.34h42.43c.32,0,.6-.11.84-.34.23-.23.35-.51.35-.84v-13.49c0-.33-.12-.59-.35-.79-.24-.2-.51-.29-.84-.29h-42.92c-2.5,0-4.78-.63-6.84-1.87-2.07-1.24-3.73-2.9-4.98-4.97-1.24-2.07-1.87-4.38-1.87-6.94v-14.57c0-2.5.62-4.78,1.87-6.84,1.25-2.07,2.91-3.73,4.98-4.97,2.07-1.24,4.35-1.87,6.84-1.87h43.51c2.5,0,4.78.63,6.84,1.87,2.07,1.25,3.73,2.91,4.97,4.97,1.24,2.07,1.87,4.35,1.87,6.84v5.41h-13.09v-4.82c0-.33-.12-.61-.35-.84-.24-.23-.51-.34-.84-.34h-42.43c-.33,0-.61.11-.84.34-.24.23-.35.51-.35.84v13.49c0,.33.11.59.35.79.23.2.5.29.84.29h43.02c2.5,0,4.78.63,6.84,1.87,2.07,1.25,3.73,2.9,4.97,4.97,1.24,2.07,1.87,4.38,1.87,6.94v14.57c0,2.5-.63,4.78-1.87,6.84-1.24,2.07-2.9,3.73-4.97,4.97-2.07,1.25-4.35,1.87-6.84,1.87h-43.51Z"/>
    </g>
  </g>
</svg>