<?xml version="1.0" encoding="UTF-8"?>
<svg id="Layer_1" data-name="Layer 1" xmlns="http://www.w3.org/2000/svg" viewBox="0 0 1051.77 1017">
  <defs>
    <style>
      .cls-1 {
        fill: #25363b;
        stroke-width: 0px;
      }
    </style>
  </defs>
  <g>
    <g>
      <path class="cls-1" d="m528.34,221.46c-75.28,0-136.33,61.05-136.33,136.33s61.05,136.34,136.33,136.34,136.33-61.05,136.33-136.34-61.03-136.33-136.33-136.33Zm63.3,125.34l-63.81,95.66c-2.37,3.56-7.92,1.89-7.92-2.39v-60.6h-51.81c-5.49,0-8.74-6.15-5.64-10.68l63.81-95.66c2.37-3.56,7.92-1.89,7.92,2.39v60.6h51.81c5.49,0,8.74,6.15,5.64,10.69Z"/>
      <g>
        <polygon class="cls-1" points="672.78 572.04 672.79 572.04 672.78 572.04 672.78 572.04"/>
        <path class="cls-1" d="m273.4,176.39h98.3v-20.64h-98.3c-5.7,0-10.32,4.62-10.32,10.32h0c0,5.7,4.62,10.32,10.32,10.32Z"/>
        <path class="cls-1" d="m326.06,205.9h-85.9c-5.7,0-10.32,4.62-10.32,10.32h0c0,5.7,4.62,10.32,10.32,10.32h85.9v-20.64Z"/>
        <path class="cls-1" d="m296.38,257.37h-90.35c-5.7,0-10.32,4.62-10.32,10.32h0c0,5.7,4.62,10.32,10.32,10.32h90.35v-20.64Z"/>
      </g>
      <path class="cls-1" d="m727,357.95c0,109.73-89,198.73-198.82,198.73s-198.73-89-198.81-198.73c0-8.17.49-16.18,1.57-24.03.74-7.02,1.98-13.95,3.55-20.64h21.3c-3.8,14.28-5.7,29.23-5.78,44.67.08,49.21,19.98,93.71,52.26,125.91,32.2,32.28,76.7,52.18,125.91,52.18s93.71-19.9,125.99-52.18c32.28-32.2,52.18-76.7,52.18-125.91s-19.9-93.71-52.18-125.99c-32.28-32.28-76.7-52.18-125.99-52.18s-93.71,19.9-125.91,52.18c-13.46,13.46-24.77,28.98-33.27,46.07h-22.79c30.71-70.01,100.56-118.89,181.97-118.89,109.81,0,198.82,89,198.82,198.81Z"/>
    </g>
    <path class="cls-1" d="m528.21,99.58h-222.99c-5.7,0-10.32,4.62-10.32,10.32s4.62,10.32,10.32,10.32h222.99c65.67,0,125.03,26.59,168.07,69.62,43.03,43.05,69.62,102.4,69.62,168.08,0,80.88-40.41,152.21-102.13,195.18l1.7,2.2-1.85-2.38c-38.42,26.74-85.04,42.44-135.42,42.45-65.6,0-124.9-26.56-167.9-69.55-42.98-43-69.54-102.3-69.54-167.9,0-1.83.02-9.49.06-17.11.02-3.81.05-7.62.08-10.69.03-3.03.07-5.5.1-6.04l-20.62-.91c-.06,1.3-.08,3.58-.12,6.75-.09,9.37-.14,25.15-.14,28.01,0,142.54,115.54,258.08,258.08,258.08,55.11,0,106.15-17.33,148.07-46.76l.14.18c66.55-46.7,110.13-124.01,110.13-211.5,0-142.68-115.66-258.33-258.33-258.33Z"/>
    <path class="cls-1" d="m171.18,333.92h173.38v-20.64h-173.38c-5.7,0-10.32,4.62-10.32,10.32h0c0,5.7,4.62,10.32,10.32,10.32Z"/>
  </g>
  <g>
    <g>
      <path class="cls-1" d="m98.77,808.25v-130.27h105.08c4.59,0,8.82,1.15,12.69,3.44,3.86,2.3,6.95,5.35,9.24,9.15,2.29,3.81,3.44,8,3.44,12.59v35.15c0,4.59-1.15,8.82-3.44,12.68-2.29,3.87-5.37,6.92-9.24,9.15-3.87,2.24-8.1,3.35-12.69,3.35l-81.17.18v44.57h-23.91Zm26.09-68.85h77.9c.61,0,1.15-.18,1.63-.54.48-.36.73-.84.73-1.45v-33.34c0-.61-.25-1.12-.73-1.54-.48-.42-1.03-.63-1.63-.63h-77.9c-.61,0-1.12.21-1.54.63-.42.43-.64.94-.64,1.54v33.34c0,.61.21,1.09.64,1.45.42.36.94.54,1.54.54Zm77.9,68.85l-39.31-46.92h31.35l34.06,40.22v6.7h-26.09Z"/>
      <path class="cls-1" d="m278.49,808.25c-4.59,0-8.79-1.15-12.59-3.44-3.81-2.29-6.86-5.35-9.15-9.15-2.29-3.81-3.44-8-3.44-12.59v-80.08c0-4.59,1.15-8.79,3.44-12.59,2.29-3.81,5.34-6.85,9.15-9.15,3.8-2.29,8-3.44,12.59-3.44h80.09c4.58,0,8.79,1.15,12.59,3.44,3.81,2.3,6.85,5.34,9.15,9.15,2.29,3.81,3.44,8,3.44,12.59v80.08c0,4.59-1.15,8.79-3.44,12.59-2.3,3.8-5.34,6.86-9.15,9.15-3.8,2.3-8,3.44-12.59,3.44h-80.09Zm.91-24.1h77.9c.61,0,1.15-.21,1.63-.63.48-.42.72-.94.72-1.54v-77.9c0-.61-.24-1.12-.72-1.54-.48-.42-1.03-.63-1.63-.63h-77.9c-.61,0-1.12.21-1.54.63-.43.43-.64.94-.64,1.54v77.9c0,.61.21,1.12.64,1.54.42.43.94.63,1.54.63Z"/>
      <path class="cls-1" d="m446.8,808.25l-47.47-130.45h25.37l31.52,86.06,31.53-86.06h23.37l31.53,86.06,31.34-86.06h25.55l-47.47,130.45h-18.84l-33.88-92.4-33.7,92.4h-18.84Z"/>
      <path class="cls-1" d="m619.64,808.25v-130.45h23.73v130.45h-23.73Z"/>
      <path class="cls-1" d="m666.39,808.25v-130.45h26.26l80.09,95.3v-95.3h24.09v130.45h-26.27l-80.26-95.48v95.48h-23.91Z"/>
      <path class="cls-1" d="m847.74,808.25c-4.59,0-8.79-1.15-12.6-3.44-3.8-2.29-6.85-5.35-9.15-9.15-2.3-3.81-3.44-8-3.44-12.59v-80.08c0-4.59,1.14-8.79,3.44-12.59,2.29-3.81,5.34-6.85,9.15-9.15,3.8-2.29,8-3.44,12.6-3.44h79.89c4.59,0,8.82,1.15,12.69,3.44,3.86,2.3,6.95,5.34,9.24,9.15,2.29,3.81,3.44,8,3.44,12.59v10.15h-24.09v-9.06c0-.61-.25-1.12-.73-1.54-.48-.42-1.03-.63-1.63-.63h-77.9c-.61,0-1.12.21-1.54.63-.42.43-.64.94-.64,1.54v77.9c0,.61.21,1.12.64,1.54.42.43.94.63,1.54.63h77.9c.61,0,1.15-.21,1.63-.63.48-.42.73-.94.73-1.54v-23.55h-29.54v-24.09h53.63v48.74c0,4.59-1.15,8.79-3.44,12.59-2.29,3.8-5.37,6.86-9.24,9.15-3.87,2.3-8.1,3.44-12.69,3.44h-79.89Z"/>
    </g>
    <g>
      <path class="cls-1" d="m126.73,917.42l-27.96-76.86h14.95l18.57,50.71,18.57-50.71h13.77l18.58,50.71,18.47-50.71h15.05l-27.97,76.86h-11.1l-19.96-54.45-19.86,54.45h-11.1Z"/>
      <path class="cls-1" d="m230.71,917.42v-76.86h13.99v76.86h-13.99Z"/>
      <path class="cls-1" d="m289.42,917.42v-62.66h-31.38v-14.2h76.86v14.2h-31.28v62.66h-14.2Z"/>
      <path class="cls-1" d="m348.35,917.42v-76.86h14.09v31.28h50.39v-31.28h14.09v76.86h-14.09v-31.28h-50.39v31.28h-14.09Z"/>
      <path class="cls-1" d="m508.15,917.42l-27.96-76.86h14.95l18.57,50.71,18.57-50.71h13.77l18.58,50.71,18.47-50.71h15.05l-27.97,76.86h-11.1l-19.96-54.45-19.86,54.45h-11.1Z"/>
      <path class="cls-1" d="m609.36,855.4c0-2.71.67-5.18,2.03-7.42,1.35-2.24,3.15-4.04,5.39-5.39,2.24-1.35,4.71-2.03,7.42-2.03h47.08c2.71,0,5.19.68,7.47,2.03,2.28,1.35,4.09,3.15,5.44,5.39,1.36,2.24,2.03,4.71,2.03,7.42v62.02h-14.2v-25.84h-48.58v25.84h-14.09v-62.02Zm62.67,22.1v-21.45c0-.36-.14-.66-.43-.91-.28-.25-.61-.37-.96-.37h-45.91c-.36,0-.66.12-.91.37-.25.25-.37.55-.37.91v21.45h48.58Z"/>
      <path class="cls-1" d="m731.27,917.42v-62.66h-31.38v-14.2h76.86v14.2h-31.28v62.66h-14.2Z"/>
      <path class="cls-1" d="m817.64,917.42v-62.66h-31.38v-14.2h76.86v14.2h-31.28v62.66h-14.2Z"/>
      <path class="cls-1" d="m890.98,917.42c-2.71,0-5.18-.67-7.42-2.03-2.24-1.35-4.04-3.15-5.4-5.39-1.35-2.24-2.02-4.71-2.02-7.42v-5.87h14.09v5.23c0,.36.12.66.37.91.25.25.55.37.91.37h46.01c.35,0,.65-.12.91-.37.25-.25.37-.55.37-.91v-14.63c0-.36-.13-.64-.37-.85-.25-.21-.55-.32-.91-.32h-46.55c-2.71,0-5.18-.68-7.42-2.03-2.24-1.35-4.04-3.15-5.4-5.39-1.35-2.24-2.02-4.75-2.02-7.53v-15.8c0-2.71.67-5.18,2.02-7.42,1.36-2.24,3.16-4.04,5.4-5.39,2.24-1.35,4.71-2.03,7.42-2.03h47.18c2.71,0,5.18.68,7.42,2.03,2.24,1.35,4.04,3.15,5.39,5.39s2.03,4.71,2.03,7.42v5.87h-14.2v-5.23c0-.36-.13-.66-.37-.91-.25-.25-.55-.37-.91-.37h-46.01c-.36,0-.66.12-.91.37-.25.25-.37.55-.37.91v14.62c0,.36.12.64.37.85.25.21.55.32.91.32h46.65c2.71,0,5.18.68,7.42,2.03,2.24,1.35,4.04,3.15,5.39,5.39,1.35,2.24,2.03,4.75,2.03,7.53v15.8c0,2.71-.68,5.18-2.03,7.42-1.35,2.24-3.15,4.04-5.39,5.39-2.24,1.35-4.71,2.03-7.42,2.03h-47.18Z"/>
    </g>
  </g>
</svg>